<?xml version="1.0" standalone="no"?>
<!DOCTYPE svg PUBLIC "-//W3C//DTD SVG 20010904//EN"
 "http://www.w3.org/TR/2001/REC-SVG-20010904/DTD/svg10.dtd">
<svg version="1.0" xmlns="http://www.w3.org/2000/svg"
 width="100.000000pt" height="100.000000pt" viewBox="0 0 100.000000 100.000000"
 preserveAspectRatio="xMidYMid meet">

<g transform="translate(0.000000,100.000000) scale(0.100000,-0.100000)"
fill="#000000" stroke="none">
<path d="M400 875 c-76 -22 -129 -55 -188 -120 -69 -76 -96 -145 -96 -255 0
-121 27 -185 113 -271 86 -86 150 -113 271 -113 121 0 185 27 271 113 86 86
113 150 113 271 0 121 -27 185 -113 271 -50 50 -81 71 -126 88 -78 29 -174 35
-245 16z m247 -55 c33 -15 80 -47 103 -70 50 -50 100 -151 100 -202 l0 -38
-103 0 -103 0 -19 43 c-26 55 -96 93 -152 82 -42 -8 -100 -61 -105 -97 -3 -22
-8 -23 -110 -26 l-108 -3 0 39 c0 52 60 171 106 211 110 97 260 121 391 61z
m-66 -239 c25 -25 29 -37 29 -81 0 -44 -4 -56 -29 -81 -25 -25 -37 -29 -81
-29 -44 0 -56 4 -81 29 -25 25 -29 37 -29 81 0 44 4 56 29 81 25 25 37 29 81
29 44 0 56 -4 81 -29z m-211 -112 c0 -12 17 -39 39 -60 35 -35 44 -39 91 -39
47 0 56 4 91 39 22 21 39 48 39 60 0 20 5 21 116 21 l117 0 -7 -42 c-18 -113
-97 -218 -205 -271 -59 -29 -75 -32 -151 -32 -101 0 -171 27 -244 95 -51 47
-102 142 -112 208 l-7 42 117 0 c111 0 116 -1 116 -21z"/>
<path d="M462 538 c-7 -7 -12 -24 -12 -38 0 -33 17 -50 50 -50 14 0 31 5 38
12 7 7 12 24 12 38 0 33 -17 50 -50 50 -14 0 -31 -5 -38 -12z"/>
</g>
</svg>
